<svg width="14" height="14" viewBox="0 0 14 14" fill="none" xmlns="http://www.w3.org/2000/svg">
<path d="M10.4615 0.84613C10.6183 0.84613 10.7652 0.92424 10.8617 1.0557L10.8999 1.11523L13.0794 5.03131C13.1823 5.21637 13.1774 5.44748 13.0715 5.62572L13.0325 5.683L7.39147 12.9557C7.20029 13.2022 6.86239 13.2187 6.65162 13.0051L6.60849 12.9557L0.967475 5.683C0.839275 5.51774 0.811167 5.28865 0.89026 5.09458L0.920603 5.03131L3.10009 1.11523C3.18145 0.969034 3.31886 0.872653 3.47198 0.850841L3.53844 0.84613H10.4615ZM8.80254 5.8811H5.1969L6.99947 10.7326L8.80254 5.8811ZM11.5354 5.8811H9.90921L8.41331 9.90628L11.5354 5.8811ZM4.09023 5.8811H2.46408L5.58562 9.90516L4.09023 5.8811ZM4.78152 1.96501H3.82614L2.26921 4.76222H4.0487L4.78152 1.96501ZM8.15177 1.96501H5.84767L5.11485 4.76222H8.88459L8.15177 1.96501ZM10.1733 1.96501H9.21793L9.95075 4.76222H11.7302L10.1733 1.96501Z" fill="#BAC0CE"/>
</svg>
