<svg width="14" height="15" viewBox="0 0 14 15" fill="none" xmlns="http://www.w3.org/2000/svg">
<path fill-rule="evenodd" clip-rule="evenodd" d="M8.31069 0.112177C8.03783 3.29394e-08 7.69189 0 6.99999 0C6.3081 0 5.96215 3.29394e-08 5.6893 0.112177C5.32545 0.261748 5.03638 0.548637 4.88567 0.909727C4.81687 1.07457 4.78995 1.26626 4.77941 1.54589C4.76393 1.95681 4.55159 2.33718 4.19275 2.54279C3.83392 2.74839 3.39583 2.74071 3.02951 2.54856C2.78023 2.4178 2.59949 2.34509 2.42125 2.3218C2.0308 2.27078 1.63592 2.37579 1.32348 2.61372C1.08915 2.79217 0.91618 3.0895 0.57024 3.68416C0.2243 4.27882 0.0513341 4.57614 0.0127825 4.86677C-0.0386269 5.25427 0.0671835 5.64616 0.30693 5.95626C0.416358 6.0978 0.570144 6.21673 0.808829 6.36557C1.15972 6.58441 1.3855 6.95718 1.38547 7.36841C1.38545 7.77964 1.15968 8.15234 0.808829 8.37111C0.570107 8.52002 0.416292 8.63902 0.306856 8.78057C0.0671099 9.09063 -0.0386931 9.48249 0.0127089 9.86999C0.0512605 10.1606 0.224234 10.458 0.570166 11.0526C0.916106 11.6473 1.08908 11.9446 1.32341 12.123C1.63585 12.361 2.03073 12.466 2.42118 12.415C2.59941 12.3917 2.78014 12.319 3.0294 12.1882C3.39575 11.9961 3.83386 11.9884 4.19271 12.194C4.55157 12.3996 4.76392 12.78 4.77941 13.191C4.78995 13.4706 4.81687 13.6623 4.88567 13.8271C5.03638 14.1882 5.32545 14.4751 5.6893 14.6247C5.96215 14.7368 6.3081 14.7368 6.99999 14.7368C7.69189 14.7368 8.03783 14.7368 8.31069 14.6247C8.67454 14.4751 8.9636 14.1882 9.11428 13.8271C9.18311 13.6623 9.21007 13.4706 9.22061 13.1909C9.23608 12.78 9.44837 12.3996 9.80721 12.194C10.1661 11.9883 10.6042 11.9961 10.9705 12.1882C11.2198 12.319 11.4005 12.3916 11.5787 12.4149C11.9692 12.466 12.364 12.361 12.6765 12.123C12.9109 11.9446 13.0838 11.6473 13.4297 11.0525C13.7757 10.4579 13.9486 10.1606 13.9872 9.86999C14.0386 9.48249 13.9328 9.09056 13.6931 8.7805C13.5836 8.63895 13.4298 8.51995 13.1911 8.37111C12.8403 8.15234 12.6145 7.77957 12.6145 7.36834C12.6145 6.95711 12.8403 6.58449 13.1911 6.36572C13.4299 6.2168 13.5837 6.09788 13.6932 5.95626C13.9329 5.64622 14.0387 5.25432 13.9873 4.86682C13.9487 4.57619 13.7758 4.27886 13.4298 3.68421C13.0839 3.08955 12.9109 2.79222 12.6765 2.61378C12.3641 2.37584 11.9692 2.27083 11.5788 2.32185C11.4006 2.34514 11.2198 2.41784 10.9706 2.54859C10.6043 2.74075 10.1661 2.74843 9.80728 2.54281C9.44844 2.33719 9.23608 1.9568 9.22054 1.54585C9.21 1.26625 9.18311 1.07456 9.11428 0.909727C8.9636 0.548637 8.67454 0.261748 8.31069 0.112177ZM6.99999 9.57894C8.23015 9.57894 9.22732 8.58929 9.22732 7.36841C9.22732 6.14754 8.23015 5.15789 6.99999 5.15789C5.76984 5.15789 4.77264 6.14754 4.77264 7.36841C4.77264 8.58929 5.76984 9.57894 6.99999 9.57894Z" fill="#BAC0CE"/>
</svg>
